/* XPM */
static const char * MicAlpha[] = {
"25 25 7 1",
" 	c None",
".	c #000000",
"+	c #010101",
"@	c #191919",
"#	c #FFFFFF",
"$	c #FDFDFD",
"%	c #F5F5F5",
".........................",
".........................",
"........................+",
"........................@",
"...............####......",
"..............######.....",
".............########....",
"............##########...",
"............##########...",
"............##########...",
"............##########...",
"............#########....",
"...........########$.....",
"..........########%......",
".........#####...........",
"........#####............",
".......#####.............",
"......#####..............",
"......####...............",
".....####................",
".....##..................",
"....#....................",
"...#.....................",
".........................",
"........................."};
