/* XPM */
static const char * SpeakerAlpha[] = {
"25 25 3 1",
" 	c None",
".	c #000000",
"+	c #FFFFFF",
".........................",
".........................",
".........................",
".........................",
".........................",
"................+........",
"................+........",
"...........+....++.......",
"...........+.....+.......",
"..........++..+..++......",
".......+++++..++..+......",
".......+++++...+..+......",
".......+++++...+..+......",
".......+++++..++..+......",
"..........++..+...+......",
"..........++..+..++......",
"...........+....++.......",
"...........+....++.......",
"................+........",
".........................",
".........................",
".........................",
".........................",
".........................",
"........................."};
