/* XPM */
static const char * Up[] = {
"27 27 15 1",
" 	c None",
".	c #FBFBFB",
"+	c #FCFCFC",
"@	c #FDFDFD",
"#	c #F9F9F9",
"$	c #FAFAFA",
"%	c #FEFEFE",
"&	c #F4F4F4",
"*	c #CCCCCC",
"=	c #AFAFAF",
"-	c #6E6E6E",
";	c #808080",
">	c #FFFFFF",
",	c #8F8F8F",
"'	c #545454",
".+@@.#$##$$.@%%%%%%%%%%%.#;",
"&*************************;",
"#*************************;",
".*************************;",
"#*************************;",
"$*************************;",
"$*************************;",
"#*************************;",
"#*************************;",
"$*************************;",
".*************************;",
"+*************************;",
"@*************************;",
"%*************************;",
">*************************;",
"%*************************;",
"%*************************;",
".*************************;",
"#*************************;",
"#*************************;",
"$*************************;",
"#*************************;",
"#*************************;",
"$*************************;",
"#*************************;",
"#*************************;",
";;;;;;;;;;;;;;;;;;;;;;;;;;;"};

//TODO: Remove this if the new image is preferred.
/* XPM */
static const char * UpOld[] = {
"27 27 27 1",
" 	c None",
".	c #FBFBFB",
"+	c #FCFCFC",
"@	c #FDFDFD",
"#	c #F9F9F9",
"$	c #FAFAFA",
"%	c #FEFEFE",
"&	c #F4F4F4",
"*	c #CCCCCC",
"=	c #AFAFAF",
"-	c #6E6E6E",
";	c #4B4B4B",
">	c #424242",
",	c #454545",
"'	c #FFFFFF",
")	c #646464",
"!	c #757575",
"~	c #797979",
"{	c #7C7C7C",
"]	c #8F8F8F",
"^	c #545454",
"/	c #484848",
"(	c #404040",
"_	c #3F3F3F",
":	c #3D3D3D",
"<	c #414141",
"[	c #3B3B3B",
".+@@.#$##$$.@%%%%%%%%%%%.#$",
"&*************************=",
"#*************************-",
".*************************;",
"#*************************>",
"$*************************,",
"$*************************,",
"#*************************>",
"#*************************,",
"$*************************,",
".*************************>",
"+*************************,",
"@*************************,",
"%*************************>",
"'*************************;",
"%*************************)",
"%*************************!",
".*************************~",
"#*************************{",
"#*************************{",
"$*************************~",
"#*************************{",
"#*************************{",
"$*************************~",
"#*************************{",
"#*************************{",
"$]^/,>,,(_(::<>>,,>,,>,,>,["};
