/* XPM */
static const char * DownButton[] = {
"48 48 90 1",
" 	c None",
".	c #E7E7E7",
"+	c #EFEFEF",
"@	c #FFFFFF",
"#	c #FDFDFD",
"$	c #FAFAFA",
"%	c #F5F5F5",
"&	c #F0F0F0",
"*	c #EDEDED",
"=	c #EBEBEB",
"-	c #ECECEC",
";	c #E6E6E6",
">	c #CDCDCD",
",	c #828282",
"'	c #7E7E7E",
")	c #868686",
"!	c #8B8B8B",
"~	c #8E8E8E",
"{	c #909090",
"]	c #919191",
"^	c #E1E1E1",
"/	c #D0D0D0",
"(	c #7D7D7D",
"_	c #9E9E9E",
":	c #B0B0B0",
"<	c #B7B7B7",
"[	c #B8B8B8",
"}	c #B9B9B9",
"|	c #B6B6B6",
"1	c #9D9D9D",
"2	c #E4E4E4",
"3	c #949494",
"4	c #848484",
"5	c #B1B1B1",
"6	c #BABABA",
"7	c #BBBBBB",
"8	c #969696",
"9	c #BCBCBC",
"0	c #DCDCDC",
"a	c #7F7F7F",
"b	c #D3D3D3",
"c	c #787878",
"d	c #A0A0A0",
"e	c #ABABAB",
"f	c #AEAEAE",
"g	c #B2B2B2",
"h	c #B3B3B3",
"i	c #DBDBDB",
"j	c #7B7B7B",
"k	c #A7A7A7",
"l	c #777777",
"m	c #A3A3A3",
"n	c #A9A9A9",
"o	c #ACACAC",
"p	c #A6A6A6",
"q	c #A4A4A4",
"r	c #AAAAAA",
"s	c #ADADAD",
"t	c #AFAFAF",
"u	c #EEEEEE",
"v	c #B4B4B4",
"w	c #B3B3B4",
"x	c #A8A8A8",
"y	c #B5B5B5",
"z	c #BDBDBD",
"A	c #BCBCBA",
"B	c #7C7C7C",
"C	c #BEBEBE",
"D	c #C1C1C1",
"E	c #C0C0C0",
"F	c #888888",
"G	c #9A9A9A",
"H	c #999999",
"I	c #E0E0E0",
"J	c #878787",
"K	c #7A7A7A",
"L	c #8F8F8F",
"M	c #676767",
"N	c #737373",
"O	c #A5A5A5",
"P	c #E9E9E9",
"Q	c #D7D7D7",
"R	c #656565",
"S	c #4B4B4B",
"T	c #3E3E3E",
"U	c #393939",
"V	c #383838",
"W	c #F7F7F7",
"X	c #D2D2D2",
"Y	c #858585",
"................................................",
"++++++++++++++++++++++++++++++++++++++++++++++++",
"@@@@@@@@@@@@@@@@@@@@@@@@@@@@@@@@@@@@@@@@@@@@@@@@",
"++++++++++++++++++++++++++++++++++++++++++++++++",
"................................................",
"++++++++++++++++++++++++++++++++++++++++++++++++",
"@@@@@@#$%&*==========================*&%$#@@@@@@",
"+++++-;>,')!~{{]]]{{]]]]]]]{{]]]]]]~!)',>;-+++++",
".....^/(_:<<[[}}}}[}}}}}}}}[}}}}}}}[[|:1(/^.....",
"+++++2345}}6667677676677777676677776}}}5432+++++",
"@@@@@&]8[}6777979779797999779797997776}[8]&@@@@@",
"+++++0a1|<}}}}6}}}}6}}}6}}}}6}}}6}}}}}<|1a0+++++",
".....bcdef:5ghhhhhhhhhhhhhhhhhhhhhhg5:fedcb.....",
"+++++ijkef:55::555::5555555::55555555:fekji+++++",
"@@@@@=4kef:55555555555555555555555555:fek4=@@@@@",
"+++++ijkef:55gggggggggggggggggggggg55:fekji+++++",
"....2blmnof::gggggggggggggggggggggg55:feplb2;...",
"++++-ijqrst:5ggggggggggggggggg5555555:fekji-u+++",
"@@@@#=4prs::5ggggggggggggggggg5555555:fek4=#@@@@",
"++++-ijpef::5gggggggggggggggggggggg55:fekji-u+++",
"....2blpef:55gggggggggggggggggggggg::formlb2;...",
"++++-ijkef:55::55gggggggggggggggggg5:tsrqji-u+++",
"@@@@#=4kef:555555gggggggggggggggggg5::srp4=#@@@@",
"++++-ijkef:55gggggggggggggggggggggg5::fepji-u+++",
"....2blmnof::gggggggggggggggggggggg55:feplb2;...",
"++++-ijqrst:5ggggggggggggggggg5555555:fekji-u+++",
"@@@@#=4prs::5ggggggggggggggggg5555555:fek4=#@@@@",
"++++-ijpef::5gggggggggggggggggggggg55:fekji-u+++",
"....2blpef:55gggggggggggggggggggggg::formlb2;...",
"+++++ijkef:55::5555555::555555ggggg5:tsrqji-u+++",
"@@@@@=4kef:5555555555555555555ggggg5::srp4=#@@@@",
"+++++ijkef:55gggggggggggggggggggggg5::fepji-u+++",
".....blkef:g5hhghhgghhhhghgghhggggg55:feplb2;...",
"+++++ijkot:ghvhhhhhvhwvhhhhvhwhhvhwhg5toxji+++++",
"@@@@@=4ks:ghvyyvyyyyyyyyvyyyyyyyyyyvvh:sk4=@@@@@",
"+++++ijxfhvy|[<<<<[<<<[<<<[<<<<[<<<<|vgfxji+++++",
".....bln:h[6769999z97A6999z97A9z97A76}v:rlb.....",
"+++++iBrh6CDDDDDEEDDEDDDDEDDEDEDDEDDDC7hrBi+++++",
"@@@@@-FG[DDDDDDDDDDDDDDDDDDDDDDDDDDDDDE<HF-@@@@@",
"+++++IJK}DDDDDDDDDDDDDDDDDDDDDDDDDDDDDD}KJI+++++",
".....0LMNODDDDDDDDDDDDDDDDDDDDDDDDDDDDONML0.....",
"+++++PQJRSTUVVVVVVVVVVVVVVVVVVVVVVVVUTSRJQP+++++",
"@@@@@#W.X]FY444444444444444444444444YF]X.W#@@@@@",
"++++++++++++++++++++++++++++++++++++++++++++++++",
"................................................",
"++++++++++++++++++++++++++++++++++++++++++++++++",
"@@@@@@@@@@@@@@@@@@@@@@@@@@@@@@@@@@@@@@@@@@@@@@@@",
"++++++++++++++++++++++++++++++++++++++++++++++++"};
