/* XPM */
static const char * HiliteButton[] = {
"48 48 80 1",
" 	c None",
".	c #E7E7E7",
"+	c #EFEFEF",
"@	c #FFFFFF",
"#	c #FDFDFD",
"$	c #FAFAFA",
"%	c #F5F5F5",
"&	c #F0F0F0",
"*	c #EDEDED",
"=	c #EBEBEB",
"-	c #ECECEC",
";	c #E6E6E6",
">	c #CDCDCD",
",	c #ACACAC",
"'	c #A6A6A6",
")	c #B1B1B1",
"!	c #B7B7B7",
"~	c #BBBBBB",
"{	c #BEBEBE",
"]	c #BFBFBF",
"^	c #E1E1E1",
"/	c #D0D0D0",
"(	c #A5A5A5",
"_	c #D1D1D1",
":	c #E8E8E8",
"<	c #F2F2F2",
"[	c #F3F3F3",
"}	c #F4F4F4",
"|	c #F1F1F1",
"1	c #E4E4E4",
"2	c #C4C4C4",
"3	c #AEAEAE",
"4	c #EAEAEA",
"5	c #F6F6F6",
"6	c #F7F7F7",
"7	c #C6C6C6",
"8	c #F8F8F8",
"9	c #DCDCDC",
"0	c #A8A8A8",
"a	c #CFCFCF",
"b	c #D3D3D3",
"c	c #9E9E9E",
"d	c #D4D4D4",
"e	c #E2E2E2",
"f	c #E9E9E9",
"g	c #DBDBDB",
"h	c #A3A3A3",
"i	c #AFAFAF",
"j	c #9D9D9D",
"k	c #D7D7D7",
"l	c #DFDFDF",
"m	c #E3E3E3",
"n	c #D9D9D9",
"o	c #E0E0E0",
"p	c #E5E5E5",
"q	c #EEEEEE",
"r	c #DDDDDD",
"s	c #EDEDEE",
"t	c #DEDEDE",
"u	c #F9F9F9",
"v	c #F8F8F6",
"w	c #A4A4A4",
"x	c #FBFBFB",
"y	c #FEFEFE",
"z	c #B4B4B4",
"A	c #CBCBCB",
"B	c #CACACA",
"C	c #B2B2B2",
"D	c #A1A1A1",
"E	c #BDBDBD",
"F	c #888888",
"G	c #989898",
"H	c #DADADA",
"I	c #858585",
"J	c #636363",
"K	c #525252",
"L	c #4B4B4B",
"M	c #4A4A4A",
"N	c #D2D2D2",
"O	c #B0B0B0",
"................................................",
"++++++++++++++++++++++++++++++++++++++++++++++++",
"@@@@@@@@@@@@@@@@@@@@@@@@@@@@@@@@@@@@@@@@@@@@@@@@",
"++++++++++++++++++++++++++++++++++++++++++++++++",
"................................................",
"++++++++++++++++++++++++++++++++++++++++++++++++",
"@@@@@@#$%&*==========================*&%$#@@@@@@",
"+++++-;>,')!~{{]]]{{]]]]]]]{{]]]]]]~!)',>;-+++++",
".....^/(_:<<[[}}}}[}}}}}}}}[}}}}}}}[[|:/(/^.....",
"+++++1234}%5556566565566666565566665%%}4321+++++",
"@@@@@&]7[%5666868668686888668686886665%[7]&@@@@@",
"+++++90a&<}%%%5%%%%5%%%5%%%%5%%%5%%%}}<&a09+++++",
".....bcde;f4=----------------------=4f;edcb.....",
"+++++gh9e;:44ff444ff4444444ff44444444:;e9hg+++++",
"@@@@@=i9e;:44444444444444444444444444:;e9i=@@@@@",
"+++++gh9e;:44======================44:;e9hg+++++",
"....1bjklm;:f======================44:;egjb1;...",
"++++-ghnop.f4=================4444444:;e9hg-q+++",
"@@@@#=ig^p:f4=================4444444:;e9i=#@@@@",
"++++-ghge;:f4======================44:;e9hg-q+++",
"....1bjge;:44======================f:;mokjb1;...",
"++++-gh9e;:44ff44==================4f.ponhg-q+++",
"@@@@#=i9e;:444444==================4f:p^gi=#@@@@",
"++++-gh9e;:44======================4f:;eghg-q+++",
"....1bjklm;:f======================44:;egjb1;...",
"++++-ghnop.f4=================4444444:;e9hg-q+++",
"@@@@#=ig^p:f4=================4444444:;e9i=#@@@@",
"++++-ghge;:f4======================44:;e9hg-q+++",
"....1bjge;:44======================f:;mokjb1;...",
"+++++gh9e;:44ff4444444ff444444=====4f.ponhg-q+++",
"@@@@@=i9e;:4444444444444444444=====4f:p^gi=#@@@@",
"+++++gh9e;:44======================4f:;eghg-q+++",
".....bjre;f=4--=--==----=-==--=====44:;egjb1;...",
"+++++ghrm.f=-q**---q-sq**--q-s--q-s-=4.mthg+++++",
"@@@@@=ir1f=-q++q++++++++q++++++++++qq-f1ri=@@@@@",
"+++++ght;-q+|[<<<<[<<<[<<<[<<<<[<<<<|q=;thg+++++",
".....bjl:*[56588uu$86v588u$86vu$86v65}q:ojb.....",
"+++++gw^-5x@@@@@yy@@y@@@@y@@y@y@@y@@@x6-^wg+++++",
"@@@@@-zA[@@@@@@@@@@@@@@@@@@@@@@@@@@@@@y<Bz-@@@@@",
"+++++oCD}@@@@@@@@@@@@@@@@@@@@@@@@@@@@@@}DCo+++++",
".....9EFGH@@@@@@@@@@@@@@@@@@@@@@@@@@@@HGFE9.....",
"+++++fkCIJKLMMMMMMMMMMMMMMMMMMMMMMMMLKJICkf+++++",
"@@@@@#6.N]zOiiiiiiiiiiiiiiiiiiiiiiiiOz]N.6#@@@@@",
"++++++++++++++++++++++++++++++++++++++++++++++++",
"................................................",
"++++++++++++++++++++++++++++++++++++++++++++++++",
"@@@@@@@@@@@@@@@@@@@@@@@@@@@@@@@@@@@@@@@@@@@@@@@@",
"++++++++++++++++++++++++++++++++++++++++++++++++"};
